# xmcd
#
# Track frame offsets:
#	150
#	15335
#	30965
#	44293
#	68438
#	81797
#	97646
#	111868
#	125284
#	141134
#	151943
#	168301
#	189412
#	204037
#
# Disc length: 2964 seconds
#
# Revision: 1
# Processed by: cddbd v1.5.2PL0 Copyright (c) Steve Scherf et al.
# Submitted via: audiograbber 1.83.01
#
DISCID=950b920e
DTITLE=Cherryholmes - Cherryholmes II - Black and White
DYEAR=2007
DGENRE=Bluegrass
TTITLE0=You Don't Know What Love Is
TTITLE1=Heat Of The Morning
TTITLE2=I Don't Know
TTITLE3=Black And White
TTITLE4=The Nine Yards
TTITLE5=Turned Me Down
TTITLE6=Darkness On The Delta
TTITLE7=Don't Give Your Heart To A Knoxville Girl
TTITLE8=My True Love
TTITLE9=Bootstrap Bill
TTITLE10=Tell Me Why
TTITLE11=Mansions Of Kings
TTITLE12=I'll Never Shed Another Tear
TTITLE13=Greedy Hands
EXTD=
EXTT0=
EXTT1=
EXTT2=
EXTT3=
EXTT4=
EXTT5=
EXTT6=
EXTT7=
EXTT8=
EXTT9=
EXTT10=
EXTT11=
EXTT12=
EXTT13=
PLAYORDER=
